<svg width="18" height="11" viewBox="0 0 18 11" fill="none" xmlns="http://www.w3.org/2000/svg">
<rect width="18" height="11" fill="white"/>
<rect x="15.7998" y="9.60059" width="1.5" height="0.838095" fill="black"/>
<rect x="16.3291" y="10.4004" width="0.441176" height="0.1" fill="black"/>
<rect x="1.7998" y="3.7002" width="14.4" height="3.6" rx="1.8" fill="#C4C4C4"/>
<circle cx="14.5" cy="5.5" r="1" fill="white"/>
<rect x="4.90039" y="4.2998" width="4.8" height="2.4" fill="#2F80ED"/>
<rect x="10.3994" y="4.2998" width="0.988235" height="0.6" fill="white"/>
<ellipse cx="11.3875" cy="4.5998" rx="0.211765" ry="0.3" fill="white"/>
<rect x="10.3994" y="6.10059" width="1.4" height="0.6" fill="white"/>
<circle cx="11.799" cy="6.40059" r="0.3" fill="white"/>
<rect x="10.3994" y="5.2002" width="1.15294" height="0.6" fill="white"/>
<ellipse cx="11.5527" cy="5.5002" rx="0.247059" ry="0.3" fill="white"/>
<rect x="0.700195" y="0.600586" width="2.6" height="0.7" fill="#C4C4C4"/>
<circle cx="1.05039" cy="0.950781" r="0.15" fill="black"/>
<circle cx="1.55039" cy="0.950781" r="0.15" fill="black"/>
<circle cx="3.05039" cy="0.950781" r="0.15" fill="black"/>
<circle cx="2.55039" cy="0.950781" r="0.15" fill="black"/>
<circle cx="2.05039" cy="0.950781" r="0.15" fill="black"/>
<rect x="3.89941" y="0.600586" width="4" height="0.7" fill="#C4C4C4"/>
<circle cx="4.14902" cy="0.950781" r="0.15" fill="black"/>
<circle cx="4.64902" cy="0.950781" r="0.15" fill="black"/>
<circle cx="6.14902" cy="0.950781" r="0.15" fill="black"/>
<circle cx="5.64902" cy="0.950781" r="0.15" fill="black"/>
<circle cx="7.14902" cy="0.950781" r="0.15" fill="black"/>
<circle cx="6.64902" cy="0.950781" r="0.15" fill="black"/>
<circle cx="7.64902" cy="0.950781" r="0.15" fill="black"/>
<circle cx="5.14902" cy="0.950781" r="0.15" fill="black"/>
<rect x="8.5" y="0.600586" width="3" height="0.7" fill="#C4C4C4"/>
<circle cx="8.74961" cy="0.950781" r="0.15" fill="black"/>
<circle cx="9.24961" cy="0.950781" r="0.15" fill="black"/>
<circle cx="10.7496" cy="0.950781" r="0.15" fill="black"/>
<circle cx="10.2496" cy="0.950781" r="0.15" fill="black"/>
<circle cx="11.2496" cy="0.950781" r="0.15" fill="black"/>
<circle cx="9.74961" cy="0.950781" r="0.15" fill="black"/>
<rect x="12.1006" y="0.600586" width="1.5" height="0.7" fill="#C4C4C4"/>
<circle cx="12.3502" cy="0.950781" r="0.15" fill="black"/>
<circle cx="12.8502" cy="0.950781" r="0.15" fill="black"/>
<circle cx="13.3502" cy="0.950781" r="0.15" fill="black"/>
<rect x="2.39941" y="9.7002" width="1.5" height="0.7" fill="#C4C4C4"/>
<circle cx="2.64902" cy="10.0504" r="0.15" fill="black"/>
<circle cx="3.14902" cy="10.0504" r="0.15" fill="black"/>
<circle cx="3.64902" cy="10.0504" r="0.15" fill="black"/>
<rect x="4.5" y="9.7002" width="2" height="0.7" fill="#C4C4C4"/>
<circle cx="4.74961" cy="10.0504" r="0.15" fill="black"/>
<circle cx="5.24961" cy="10.0504" r="0.15" fill="black"/>
<circle cx="5.74961" cy="10.0504" r="0.15" fill="black"/>
<circle cx="6.24961" cy="10.0504" r="0.15" fill="black"/>
<rect x="9.2002" y="9.7002" width="1.5" height="0.7" fill="#C4C4C4"/>
<circle cx="9.4498" cy="10.0504" r="0.15" fill="black"/>
<circle cx="9.9498" cy="10.0504" r="0.15" fill="black"/>
<circle cx="10.4498" cy="10.0504" r="0.15" fill="black"/>
<rect x="7.10059" y="9.7002" width="1.5" height="0.7" fill="#C4C4C4"/>
<circle cx="7.3502" cy="10.0504" r="0.15" fill="black"/>
<circle cx="7.8502" cy="10.0504" r="0.15" fill="black"/>
<circle cx="8.35019" cy="10.0504" r="0.15" fill="black"/>
<rect x="14.2002" y="0.600586" width="1.5" height="0.7" fill="#C4C4C4"/>
<circle cx="14.4498" cy="0.950781" r="0.15" fill="black"/>
<circle cx="14.9498" cy="0.950781" r="0.15" fill="black"/>
<circle cx="15.4498" cy="0.950781" r="0.15" fill="black"/>
<rect x="16.2998" y="0.600586" width="1" height="0.7" fill="#C4C4C4"/>
<circle cx="16.5504" cy="0.950781" r="0.15" fill="black"/>
<circle cx="17.0504" cy="0.950781" r="0.15" fill="black"/>
<rect x="0.700195" y="9.7002" width="1" height="0.7" fill="#C4C4C4"/>
<circle cx="0.949805" cy="10.0504" r="0.15" fill="black"/>
<circle cx="1.4498" cy="10.0504" r="0.15" fill="black"/>
<rect x="11.2998" y="9.7002" width="1" height="0.7" fill="#C4C4C4"/>
<circle cx="11.5504" cy="10.0504" r="0.15" fill="black"/>
<circle cx="12.0504" cy="10.0504" r="0.15" fill="black"/>
</svg>
