<svg width="13" height="6" viewBox="0 0 13 6" fill="none" xmlns="http://www.w3.org/2000/svg">
<path d="M4.84819 2.81818C4.84819 3.29403 4.75799 3.69886 4.57759 4.03267C4.39862 4.36648 4.1543 4.62145 3.84464 4.79759C3.5364 4.9723 3.18981 5.05966 2.80487 5.05966C2.41708 5.05966 2.06907 4.97159 1.76083 4.79545C1.45259 4.61932 1.20898 4.36435 1.03001 4.03054C0.85103 3.69673 0.761541 3.29261 0.761541 2.81818C0.761541 2.34233 0.85103 1.9375 1.03001 1.60369C1.20898 1.26989 1.45259 1.01562 1.76083 0.840909C2.06907 0.664773 2.41708 0.576704 2.80487 0.576704C3.18981 0.576704 3.5364 0.664773 3.84464 0.840909C4.1543 1.01562 4.39862 1.26989 4.57759 1.60369C4.75799 1.9375 4.84819 2.34233 4.84819 2.81818ZM3.91282 2.81818C3.91282 2.50994 3.86665 2.25 3.77433 2.03835C3.68342 1.8267 3.55487 1.66619 3.38867 1.55682C3.22248 1.44744 3.02788 1.39276 2.80487 1.39276C2.58185 1.39276 2.38725 1.44744 2.22106 1.55682C2.05487 1.66619 1.9256 1.8267 1.83327 2.03835C1.74237 2.25 1.69691 2.50994 1.69691 2.81818C1.69691 3.12642 1.74237 3.38636 1.83327 3.59801C1.9256 3.80966 2.05487 3.97017 2.22106 4.07955C2.38725 4.18892 2.58185 4.24361 2.80487 4.24361C3.02788 4.24361 3.22248 4.18892 3.38867 4.07955C3.55487 3.97017 3.68342 3.80966 3.77433 3.59801C3.86665 3.38636 3.91282 3.12642 3.91282 2.81818ZM5.53161 5V0.636364H7.27876C7.59979 0.636364 7.86754 0.683949 8.08203 0.779119C8.29652 0.87429 8.45774 1.00639 8.5657 1.17543C8.67365 1.34304 8.72763 1.53622 8.72763 1.75497C8.72763 1.92543 8.69354 2.07528 8.62536 2.20455C8.55717 2.33239 8.46342 2.4375 8.34411 2.51989C8.22621 2.60085 8.09126 2.65838 7.93928 2.69247V2.73509C8.10547 2.74219 8.26101 2.78906 8.4059 2.87571C8.5522 2.96236 8.67081 3.08381 8.76172 3.24006C8.85263 3.39489 8.89808 3.57955 8.89808 3.79403C8.89808 4.02557 8.84055 4.23224 8.7255 4.41406C8.61186 4.59446 8.44354 4.73722 8.22053 4.84233C7.99751 4.94744 7.72266 5 7.39595 5H5.53161ZM6.45419 4.24574H7.20632C7.46342 4.24574 7.65092 4.19673 7.76882 4.09872C7.88672 3.99929 7.94567 3.86719 7.94567 3.70241C7.94567 3.58168 7.91655 3.47514 7.85831 3.38281C7.80007 3.29048 7.71697 3.21804 7.60902 3.16548C7.50249 3.11293 7.37536 3.08665 7.22763 3.08665H6.45419V4.24574ZM6.45419 2.46236H7.13814C7.26456 2.46236 7.37678 2.44034 7.47479 2.39631C7.57422 2.35085 7.65234 2.28693 7.70916 2.20455C7.7674 2.12216 7.79652 2.02344 7.79652 1.90838C7.79652 1.75071 7.74041 1.62358 7.6282 1.52699C7.5174 1.4304 7.35973 1.3821 7.15518 1.3821H6.45419V2.46236ZM11.2456 0.636364H12.1575V3.67898C12.1575 3.96023 12.0943 4.20455 11.9679 4.41193C11.8429 4.61932 11.6689 4.77912 11.4458 4.89134C11.2228 5.00355 10.9636 5.05966 10.6681 5.05966C10.4054 5.05966 10.1667 5.01349 9.95224 4.92116C9.73917 4.82741 9.57013 4.68537 9.44513 4.49503C9.32013 4.30327 9.25835 4.0625 9.25977 3.77273H10.1781C10.1809 3.88778 10.2044 3.98651 10.2484 4.06889C10.2939 4.14986 10.3556 4.21236 10.4338 4.25639C10.5133 4.29901 10.6071 4.32031 10.715 4.32031C10.8287 4.32031 10.9245 4.29616 11.0027 4.24787C11.0822 4.19815 11.1426 4.12571 11.1838 4.03054C11.225 3.93537 11.2456 3.81818 11.2456 3.67898V0.636364Z" fill="#B6DAFF"/>
</svg>
